<?xml version="1.0" encoding="UTF-8" standalone="no"?>
<!-- Created with Inkscape (http://www.inkscape.org/) -->

<svg
   xmlns:dc="http://purl.org/dc/elements/1.1/"
   xmlns:cc="http://creativecommons.org/ns#"
   xmlns:rdf="http://www.w3.org/1999/02/22-rdf-syntax-ns#"
   xmlns:svg="http://www.w3.org/2000/svg"
   xmlns="http://www.w3.org/2000/svg"
   xmlns:sodipodi="http://sodipodi.sourceforge.net/DTD/sodipodi-0.dtd"
   xmlns:inkscape="http://www.inkscape.org/namespaces/inkscape"
   id="svg2"
   version="1.1"
   inkscape:version="0.48.2 r9819"
   width="1057.0825"
   height="270"
   xml:space="preserve"
   sodipodi:docname="ScienceLabSticker.ai"><metadata
     id="metadata8"><rdf:RDF><cc:Work
         rdf:about=""><dc:format>image/svg+xml</dc:format><dc:type
           rdf:resource="http://purl.org/dc/dcmitype/StillImage" /><dc:title></dc:title></cc:Work></rdf:RDF></metadata><defs
     id="defs6"><clipPath
       clipPathUnits="userSpaceOnUse"
       id="clipPath16"><path
         d="m 0,216 845.666,0 0,-216 L 0,0 0,216 z"
         id="path18" /></clipPath><clipPath
       clipPathUnits="userSpaceOnUse"
       id="clipPath24"><path
         d="m 16.4146,201.803 196.2984,0 0,-181.9182 -196.2984,0 0,181.9182 z"
         id="path26" /></clipPath><clipPath
       clipPathUnits="userSpaceOnUse"
       id="clipPath28"><path
         d="m 123.473,64.5059 44.621,0 0,-44.6211 -44.621,0 0,44.6211 z"
         id="path30" /></clipPath><clipPath
       clipPathUnits="userSpaceOnUse"
       id="clipPath32"><path
         d="m 75.9541,64.5059 44.6189,0 0,-44.6211 -44.6189,0 0,44.6211 z"
         id="path34" /></clipPath><clipPath
       clipPathUnits="userSpaceOnUse"
       id="clipPath36"><path
         d="m 75.9536,201.682 44.6194,0 0,-44.62 -44.6194,0 0,44.62 z"
         id="path38" /></clipPath><clipPath
       clipPathUnits="userSpaceOnUse"
       id="clipPath40"><path
         d="m 123.473,201.803 44.621,0 0,-44.621 -44.621,0 0,44.621 z"
         id="path42" /></clipPath><clipPath
       clipPathUnits="userSpaceOnUse"
       id="clipPath44"><path
         d="m 168.094,157.062 44.619,0 0,-44.621 -44.619,0 0,44.621 z"
         id="path46" /></clipPath><clipPath
       clipPathUnits="userSpaceOnUse"
       id="clipPath48"><path
         d="m 168.094,109.128 44.619,0 0,-44.6221 -44.619,0 0,44.6221 z"
         id="path50" /></clipPath><clipPath
       clipPathUnits="userSpaceOnUse"
       id="clipPath52"><path
         d="m 46.3979,186.765 20.2496,0 0,-20.251 -20.2496,0 0,20.251 z"
         id="path54" /></clipPath><clipPath
       clipPathUnits="userSpaceOnUse"
       id="clipPath56"><path
         d="m 46.397,55.2187 20.2505,0 0,-20.248 -20.2505,0 0,20.248 z"
         id="path58" /></clipPath><clipPath
       clipPathUnits="userSpaceOnUse"
       id="clipPath60"><path
         d="m 177.405,55.2187 20.248,0 0,-20.248 -20.248,0 0,20.248 z"
         id="path62" /></clipPath><clipPath
       clipPathUnits="userSpaceOnUse"
       id="clipPath64"><path
         d="m 177.405,186.765 20.249,0 0,-20.251 -20.249,0 0,20.251 z"
         id="path66" /></clipPath><clipPath
       clipPathUnits="userSpaceOnUse"
       id="clipPath68"><path
         d="m 31.334,157.062 44.6201,0 0,-44.621 -44.6201,0 0,44.621 z"
         id="path70" /></clipPath><clipPath
       clipPathUnits="userSpaceOnUse"
       id="clipPath72"><path
         d="m 31.334,109.128 44.6201,0 0,-44.6221 -44.6201,0 0,44.6221 z"
         id="path74" /></clipPath><clipPath
       clipPathUnits="userSpaceOnUse"
       id="clipPath76"><path
         d="m 104.108,148.747 81.912,0 0,-84.6025 -81.912,0 0,84.6025 z"
         id="path78" /></clipPath><linearGradient
       x1="0"
       y1="0"
       x2="1"
       y2="0"
       gradientUnits="userSpaceOnUse"
       gradientTransform="matrix(-68.643539,73.396637,73.396637,68.643555,179.38574,69.75)"
       spreadMethod="pad"
       id="linearGradient84"><stop
         style="stop-opacity:1;stop-color:#f8ee41"
         offset="0"
         id="stop86" /><stop
         style="stop-opacity:1;stop-color:#4c8e57"
         offset="0.828217"
         id="stop88" /><stop
         style="stop-opacity:1;stop-color:#4c8e57"
         offset="0.828217"
         id="stop90" /><stop
         style="stop-opacity:1;stop-color:#4c8e57"
         offset="1"
         id="stop92" /></linearGradient><clipPath
       clipPathUnits="userSpaceOnUse"
       id="clipPath94"><path
         d="m 16.4146,128.775 100.4664,0 0,-43.608 -100.4664,0 0,43.608 z"
         id="path96" /></clipPath><linearGradient
       x1="0"
       y1="0"
       x2="1"
       y2="0"
       gradientUnits="userSpaceOnUse"
       gradientTransform="matrix(-100.4397,3.3567047,3.3567047,100.4397,116.86914,105.29102)"
       spreadMethod="pad"
       id="linearGradient102"><stop
         style="stop-opacity:1;stop-color:#17aaa1"
         offset="0"
         id="stop104" /><stop
         style="stop-opacity:1;stop-color:#37ade2"
         offset="0.417175"
         id="stop106" /><stop
         style="stop-opacity:1;stop-color:#37ade2"
         offset="0.417175"
         id="stop108" /><stop
         style="stop-opacity:1;stop-color:#37ade2"
         offset="1"
         id="stop110" /></linearGradient><clipPath
       clipPathUnits="userSpaceOnUse"
       id="clipPath112"><path
         d="m 99.0078,182.706 43.6092,0 0,-100.4677 -43.6092,0 0,100.4677 z"
         id="path114" /></clipPath><linearGradient
       x1="0"
       y1="0"
       x2="1"
       y2="0"
       gradientUnits="userSpaceOnUse"
       gradientTransform="matrix(3.3568268,100.4436,100.4436,-3.3568268,119.13184,82.25)"
       spreadMethod="pad"
       id="linearGradient120"><stop
         style="stop-opacity:1;stop-color:#17aaa1"
         offset="0"
         id="stop122" /><stop
         style="stop-opacity:1;stop-color:#f1623b"
         offset="0.828217"
         id="stop124" /><stop
         style="stop-opacity:1;stop-color:#f1623b"
         offset="0.828217"
         id="stop126" /><stop
         style="stop-opacity:1;stop-color:#f1623b"
         offset="1"
         id="stop128" /></linearGradient><clipPath
       clipPathUnits="userSpaceOnUse"
       id="clipPath130"><path
         d="m 82.0698,127.733 84.6012,0 0,-81.9117 -84.6012,0 0,81.9117 z"
         id="path132" /></clipPath><linearGradient
       x1="0"
       y1="0"
       x2="1"
       y2="0"
       gradientUnits="userSpaceOnUse"
       gradientTransform="matrix(-0.3923035,-0.3668976,-0.3668976,0.3923035,124.0625,66.44043)"
       spreadMethod="pad"
       id="linearGradient138"><stop
         style="stop-opacity:1;stop-color:#ee3c81"
         offset="0"
         id="stop140" /><stop
         style="stop-opacity:1;stop-color:#37ade2"
         offset="0.828217"
         id="stop142" /><stop
         style="stop-opacity:1;stop-color:#37ade2"
         offset="0.828217"
         id="stop144" /><stop
         style="stop-opacity:1;stop-color:#37ade2"
         offset="1"
         id="stop146" /></linearGradient><linearGradient
       x1="0"
       y1="0"
       x2="1"
       y2="0"
       gradientUnits="userSpaceOnUse"
       gradientTransform="matrix(-73.397354,-68.644211,-68.644211,73.397354,161.07031,121.09863)"
       spreadMethod="pad"
       id="linearGradient152"><stop
         style="stop-opacity:1;stop-color:#f68a35"
         offset="0"
         id="stop154" /><stop
         style="stop-opacity:1;stop-color:#ffd635"
         offset="0.828217"
         id="stop156" /><stop
         style="stop-opacity:1;stop-color:#ffd635"
         offset="0.828217"
         id="stop158" /><stop
         style="stop-opacity:1;stop-color:#ffd635"
         offset="1"
         id="stop160" /></linearGradient></defs><sodipodi:namedview
     pagecolor="#ffffff"
     bordercolor="#666666"
     borderopacity="1"
     objecttolerance="10"
     gridtolerance="10"
     guidetolerance="10"
     inkscape:pageopacity="0"
     inkscape:pageshadow="2"
     inkscape:window-width="640"
     inkscape:window-height="480"
     id="namedview4"
     showgrid="false"
     inkscape:zoom="0.39069798"
     inkscape:cx="528.54126"
     inkscape:cy="135"
     inkscape:window-x="0"
     inkscape:window-y="0"
     inkscape:window-maximized="0"
     inkscape:current-layer="g10" /><g
     id="g10"
     inkscape:groupmode="layer"
     inkscape:label="ScienceLabSticker"
     transform="matrix(1.25,0,0,-1.25,0,270)"><g
       id="g12"><g
         id="g14"
         clip-path="url(#clipPath16)"><g
           id="g20"><g
             id="g22" /><g
             id="g162"><g
               clip-path="url(#clipPath24)"
               id="g164"><g
                 id="g166"><g
                   id="g168" /><g
                   id="g170"><g
                     clip-path="url(#clipPath28)"
                     id="g172"><g
                       transform="translate(145.7847,64.5059)"
                       id="g174"><path
                         d="m 0,0 c -12.323,0 -22.312,-9.988 -22.312,-22.311 0,-12.322 9.989,-22.31 22.312,-22.31 12.32,0 22.309,9.988 22.309,22.31 L 22.309,0 0,0 z"
                         style="fill:#90c84b;fill-opacity:1;fill-rule:nonzero;stroke:none"
                         id="path176" /></g></g></g></g><g
                 id="g178"><g
                   id="g180" /><g
                   id="g182"><g
                     clip-path="url(#clipPath32)"
                     id="g184"><g
                       transform="translate(98.2651,64.5059)"
                       id="g186"><path
                         d="m 0,0 c 12.32,0 22.308,-9.988 22.308,-22.311 0,-12.322 -9.988,-22.31 -22.308,-22.31 -12.324,0 -22.311,9.988 -22.311,22.31 L -22.311,0 0,0 z"
                         style="fill:#ed2790;fill-opacity:1;fill-rule:nonzero;stroke:none"
                         id="path188" /></g></g></g></g><g
                 id="g190"><g
                   id="g192" /><g
                   id="g194"><g
                     clip-path="url(#clipPath36)"
                     id="g196"><g
                       transform="translate(98.2651,157.0615)"
                       id="g198"><path
                         d="m 0,0 c 12.32,0 22.308,9.988 22.308,22.31 0,12.321 -9.988,22.31 -22.308,22.31 -12.324,0 -22.312,-9.989 -22.312,-22.31 L -22.312,0 0,0 z"
                         style="fill:#90c84b;fill-opacity:1;fill-rule:nonzero;stroke:none"
                         id="path200" /></g></g></g></g><g
                 id="g202"><g
                   id="g204" /><g
                   id="g206"><g
                     clip-path="url(#clipPath40)"
                     id="g208"><g
                       transform="translate(145.7832,157.1816)"
                       id="g210"><path
                         d="m 0,0 c -12.322,0 -22.31,9.989 -22.31,22.311 0,12.321 9.988,22.31 22.31,22.31 12.322,0 22.311,-9.989 22.311,-22.31 L 22.311,0 0,0 z"
                         style="fill:#fcb24c;fill-opacity:1;fill-rule:nonzero;stroke:none"
                         id="path212" /></g></g></g></g><g
                 id="g214"><g
                   id="g216" /><g
                   id="g218"><g
                     clip-path="url(#clipPath44)"
                     id="g220"><g
                       transform="translate(168.0938,134.7515)"
                       id="g222"><path
                         d="m 0,0 c 0,-12.322 9.989,-22.311 22.311,-22.311 12.319,0 22.308,9.989 22.308,22.311 0,12.321 -9.989,22.31 -22.308,22.31 L 0,22.31 0,0 z"
                         style="fill:#f04d44;fill-opacity:1;fill-rule:nonzero;stroke:none"
                         id="path224" /></g></g></g></g><g
                 id="g226"><g
                   id="g228" /><g
                   id="g230"><g
                     clip-path="url(#clipPath48)"
                     id="g232"><g
                       transform="translate(168.0938,86.8184)"
                       id="g234"><path
                         d="m 0,0 c 0,12.322 9.989,22.31 22.311,22.31 12.319,0 22.308,-9.988 22.308,-22.31 0,-12.324 -9.989,-22.313 -22.308,-22.313 L 0,-22.313 0,0 z"
                         style="fill:#17aaa1;fill-opacity:1;fill-rule:nonzero;stroke:none"
                         id="path236" /></g></g></g></g><g
                 id="g238"><g
                   id="g240" /><g
                   id="g242"><g
                     clip-path="url(#clipPath52)"
                     id="g244"><g
                       transform="translate(56.522,166.5137)"
                       id="g246"><path
                         d="m 0,0 c -5.591,0 -10.124,4.533 -10.124,10.128 0,5.589 4.533,10.123 10.124,10.123 5.593,0 10.125,-4.534 10.125,-10.123 L 10.125,0 0,0 z"
                         style="fill:#2e9c9c;fill-opacity:1;fill-rule:nonzero;stroke:none"
                         id="path248" /></g></g></g></g><g
                 id="g250"><g
                   id="g252" /><g
                   id="g254"><g
                     clip-path="url(#clipPath56)"
                     id="g256"><g
                       transform="translate(66.6475,45.0938)"
                       id="g258"><path
                         d="m 0,0 c 0,-5.592 -4.532,-10.123 -10.126,-10.123 -5.59,0 -10.124,4.531 -10.124,10.123 0,5.594 4.534,10.125 10.124,10.125 L 0,10.125 0,0 z"
                         style="fill:#aeba66;fill-opacity:1;fill-rule:nonzero;stroke:none"
                         id="path260" /></g></g></g></g><g
                 id="g262"><g
                   id="g264" /><g
                   id="g266"><g
                     clip-path="url(#clipPath60)"
                     id="g268"><g
                       transform="translate(187.5298,55.2188)"
                       id="g270"><path
                         d="m 0,0 c 5.591,0 10.124,-4.531 10.124,-10.125 0,-5.59 -4.533,-10.123 -10.124,-10.123 -5.593,0 -10.125,4.533 -10.125,10.123 L -10.125,0 0,0 z"
                         style="fill:#37ade2;fill-opacity:1;fill-rule:nonzero;stroke:none"
                         id="path272" /></g></g></g></g><g
                 id="g274"><g
                   id="g276" /><g
                   id="g278"><g
                     clip-path="url(#clipPath64)"
                     id="g280"><g
                       transform="translate(177.4048,176.6416)"
                       id="g282"><path
                         d="M 0,0 C 0,5.592 4.532,10.123 10.125,10.123 15.716,10.123 20.25,5.592 20.25,0 c 0,-5.592 -4.534,-10.128 -10.125,-10.128 L 0,-10.128 0,0 z"
                         style="fill:#f17b55;fill-opacity:1;fill-rule:nonzero;stroke:none"
                         id="path284" /></g></g></g></g><g
                 id="g286"><g
                   id="g288" /><g
                   id="g290"><g
                     clip-path="url(#clipPath68)"
                     id="g292"><g
                       transform="translate(75.9541,134.7515)"
                       id="g294"><path
                         d="m 0,0 c 0,-12.322 -9.989,-22.311 -22.311,-22.311 -12.321,0 -22.309,9.989 -22.309,22.311 0,12.321 9.988,22.31 22.309,22.31 L 0,22.31 0,0 z"
                         style="fill:#fcb24c;fill-opacity:1;fill-rule:nonzero;stroke:none"
                         id="path296" /></g></g></g></g><g
                 id="g298"><g
                   id="g300" /><g
                   id="g302"><g
                     clip-path="url(#clipPath72)"
                     id="g304"><g
                       transform="translate(75.9541,86.8184)"
                       id="g306"><path
                         d="M 0,0 C 0,12.322 -9.989,22.31 -22.311,22.31 -34.632,22.31 -44.62,12.322 -44.62,0 c 0,-12.324 9.988,-22.313 22.309,-22.313 L 0,-22.313 0,0 z"
                         style="fill:#f04d44;fill-opacity:1;fill-rule:nonzero;stroke:none"
                         id="path308" /></g></g></g></g><g
                 id="g310"><g
                   id="g312" /><g
                   id="g314"><g
                     clip-path="url(#clipPath76)"
                     id="g316"><g
                       transform="translate(124.1807,106.9746)"
                       id="g318"><path
                         d="m 0,0 0,-0.028 c 0.003,0 0.01,0 0.017,-0.001 0.243,-0.008 0.485,-0.01 0.725,-0.01 C 0.497,-0.025 0.252,-0.008 0.002,0 0.002,0 0,-0.002 0,0"
                         style="fill:#37ade2;fill-opacity:1;fill-rule:nonzero;stroke:none"
                         id="path320" /></g><g
                       id="g322"><g
                         id="g324"><g
                           id="g326"><g
                             id="g328"><path
                               d="m 124.923,106.936 c 10.967,-0.748 19.488,-9.918 19.419,-20.932 -0.005,-0.104 -0.016,-0.203 -0.019,-0.307 l 0,-0.103 c -0.003,-0.058 -0.007,-0.114 -0.011,-0.175 l 0.008,0 c -0.232,-11.388 8.73,-20.88 20.146,-21.263 11.51,-0.383 21.158,8.635 21.542,20.147 0.384,11.515 -8.633,21.158 -20.148,21.54 -0.82,0.03 -1.632,0.004 -2.435,-0.064 -9.958,1.513 -17.517,10.03 -17.696,20.231 0.034,0.393 0.063,0.782 0.078,1.187 0.385,11.509 -8.635,21.154 -20.146,21.538 -11.51,0.384 -21.157,-8.636 -21.541,-20.146 -0.386,-11.514 8.632,-21.155 20.142,-21.54"
                               style="fill:url(#linearGradient84);stroke:none"
                               id="path330" /></g></g></g></g></g></g></g><g
                 id="g332"><g
                   id="g334" /><g
                   id="g336"><g
                     clip-path="url(#clipPath94)"
                     id="g338"><g
                       transform="translate(81.7856,121.3657)"
                       id="g340"><path
                         d="M 0,0 -0.017,0.017 C -0.02,0.016 -0.028,0.011 -0.03,0.005 -0.209,-0.16 -0.381,-0.33 -0.549,-0.501 -0.367,-0.341 -0.181,-0.173 0,-0.006 L 0,0 z"
                         style="fill:#37ade2;fill-opacity:1;fill-rule:nonzero;stroke:none"
                         id="path342" /></g><g
                       id="g344"><g
                         id="g346"><g
                           id="g348"><g
                             id="g350"><path
                               d="m 52.06,93.073 c 8.286,7.224 20.794,6.77 28.53,-1.069 0.067,-0.076 0.137,-0.156 0.205,-0.229 0.025,-0.027 0.052,-0.048 0.074,-0.076 0.037,-0.039 0.076,-0.085 0.115,-0.126 l 0.002,-0.007 0.006,0.01 c 7.889,-8.216 20.94,-8.592 29.281,-0.789 8.41,7.868 8.851,21.064 0.986,29.479 -7.868,8.414 -21.063,8.852 -29.479,0.986 -0.599,-0.564 -1.155,-1.157 -1.676,-1.765 -8.112,-5.979 -19.476,-5.303 -26.816,1.788 -0.254,0.299 -0.512,0.598 -0.786,0.892 -7.868,8.41 -21.064,8.853 -29.477,0.987 -8.414,-7.869 -8.855,-21.068 -0.985,-29.48 7.87,-8.409 21.064,-8.853 29.476,-0.986"
                               style="fill:url(#linearGradient102);stroke:none"
                               id="path352" /></g></g></g></g></g></g></g><g
                 id="g354"><g
                   id="g356" /><g
                   id="g358"><g
                     clip-path="url(#clipPath112)"
                     id="g360"><g
                       transform="translate(106.417,147.6123)"
                       id="g362"><path
                         d="m 0,0 -0.02,-0.02 c 0.003,-0.003 0.007,-0.01 0.013,-0.012 C 0.158,-0.211 0.329,-0.383 0.5,-0.551 0.337,-0.365 0.173,-0.184 0.003,-0.002 0.003,0 0.003,0 0,0"
                         style="fill:#37ade2;fill-opacity:1;fill-rule:nonzero;stroke:none"
                         id="path364" /></g><g
                       id="g366"><g
                         id="g368"><g
                           id="g370"><g
                             id="g372"><path
                               d="m 106.917,147.062 c 7.222,-8.288 6.767,-20.798 -1.072,-28.533 -0.074,-0.071 -0.152,-0.134 -0.229,-0.208 -0.028,-0.021 -0.049,-0.043 -0.075,-0.07 -0.042,-0.04 -0.087,-0.075 -0.127,-0.115 l -0.003,-0.002 0.005,-0.002 c -8.217,-7.891 -8.587,-20.944 -0.79,-29.284 7.872,-8.412 21.066,-8.853 29.478,-0.989 8.415,7.87 8.856,21.065 0.988,29.48 -0.563,0.602 -1.153,1.158 -1.768,1.678 -5.971,8.111 -5.297,19.476 1.791,26.817 0.3,0.253 0.599,0.51 0.892,0.782 8.413,7.872 8.853,21.067 0.985,29.481 -7.868,8.41 -21.065,8.854 -29.476,0.986 -8.413,-7.87 -8.855,-21.066 -0.988,-29.479"
                               style="fill:url(#linearGradient120);stroke:none"
                               id="path374" /></g></g></g></g></g></g></g><g
                 id="g376"><g
                   id="g378" /><g
                   id="g380"><g
                     clip-path="url(#clipPath130)"
                     id="g382"><g
                       id="g384"><g
                         id="g386"><g
                           id="g388"><g
                             id="g390"><path
                               d="m 123.839,65.893 0.03,0 0,0.021 c 0.008,0.238 0.01,0.482 0.01,0.721 -0.016,-0.244 -0.029,-0.489 -0.04,-0.735 l 0,-0.007 z"
                               style="fill:url(#linearGradient138);stroke:none"
                               id="path392" /></g></g></g></g><g
                       id="g394"><g
                         id="g396"><g
                           id="g398"><g
                             id="g400"><path
                               d="m 123.879,66.635 c 0.751,10.967 9.92,19.49 20.931,19.42 0.103,-0.006 0.205,-0.014 0.308,-0.02 l 0.104,0 c 0.058,-0.002 0.116,-0.007 0.171,-0.01 l 0.003,0 0,0.01 c 11.388,-0.23 20.879,8.731 21.264,20.15 0.383,11.51 -8.636,21.15 -20.146,21.536 -11.515,0.383 -21.158,-8.635 -21.543,-20.145 -0.028,-0.824 -0.004,-1.634 0.063,-2.438 -1.508,-9.956 -10.027,-17.517 -20.229,-17.694 -0.392,0.036 -0.781,0.062 -1.18,0.077 C 92.11,87.902 82.467,78.887 82.082,67.373 81.696,55.865 90.717,46.219 102.226,45.834 113.74,45.447 123.383,54.467 123.77,65.98"
                               style="fill:url(#linearGradient152);stroke:none"
                               id="path402" /></g></g></g></g></g></g></g></g></g></g><g
           id="g404"
           transform="translate(271.9106,45.9023)"><path
             d="m 0,0 c -9.957,0 -20.04,2.646 -28.611,7.814 l 5.546,11.092 c 7.815,-4.537 14.746,-7.184 23.569,-7.184 10.713,0 17.141,5.167 17.141,13.864 0,6.428 -4.033,10.461 -12.982,12.982 l -9.327,2.647 c -7.94,2.268 -13.612,5.545 -16.889,10.461 -2.394,3.529 -3.655,7.687 -3.655,12.729 0,15.377 12.1,25.838 29.619,25.838 9.957,0 19.914,-2.899 27.602,-8.318 L 25.459,71.716 c -8.066,4.789 -13.612,6.68 -20.543,6.68 -8.571,0 -14.243,-4.664 -14.243,-11.848 0,-5.42 3.025,-8.193 11.596,-10.713 L 12.604,52.811 C 25.208,49.154 34.03,41.088 34.03,27.98 34.03,13.486 22.309,0 0,0"
             style="fill:#203e4b;fill-opacity:1;fill-rule:nonzero;stroke:none"
             id="path406" /></g><g
           id="g408"
           transform="translate(338.7114,45.9023)"><path
             d="m 0,0 c -17.393,0 -27.098,12.226 -27.098,32.77 0,23.191 13.864,34.282 28.106,34.282 6.932,0 11.974,-1.638 17.646,-6.932 l -6.933,-9.2 c -3.781,3.402 -7.057,4.915 -10.713,4.915 -4.411,0 -8.066,-2.269 -10.083,-6.429 -1.89,-3.906 -2.647,-9.83 -2.647,-17.77 0,-8.697 1.387,-14.242 4.285,-17.394 2.017,-2.268 5.042,-3.654 8.445,-3.654 4.411,0 8.697,2.142 12.856,6.301 L 20.417,8.445 C 14.621,2.646 8.571,0 0,0"
             style="fill:#203e4b;fill-opacity:1;fill-rule:nonzero;stroke:none"
             id="path410" /></g><g
           id="g412"
           transform="translate(365.4336,47.541)"><path
             d="M 0,0 0,62.767 13.99,65.288 13.99,0 0,0 z m 6.933,73.228 c -5.042,0 -8.95,4.159 -8.95,9.201 0,5.167 4.034,9.326 9.202,9.326 4.915,0 9.074,-4.033 9.074,-9.326 0,-5.042 -4.159,-9.201 -9.326,-9.201"
             style="fill:#203e4b;fill-opacity:1;fill-rule:nonzero;stroke:none"
             id="path414" /></g><g
           id="g416"
           transform="translate(416.9834,102.3672)"><path
             d="m 0,0 c -7.814,0 -12.1,-6.176 -12.1,-16.511 l 23.57,0 C 11.47,-6.176 6.933,0 0,0 m -12.226,-26.72 0,-1.009 c 0,-8.822 3.278,-18.148 15.755,-18.148 5.924,0 11.091,2.143 15.881,6.301 l 5.419,-8.444 c -6.68,-5.671 -14.368,-8.445 -22.938,-8.445 -18.024,0 -29.368,12.983 -29.368,33.401 0,11.216 2.396,18.653 7.941,24.955 5.168,5.923 11.47,8.57 19.536,8.57 6.302,0 12.1,-1.638 17.52,-6.554 5.545,-5.042 8.318,-12.855 8.318,-27.727 l 0,-2.9 -38.064,0 z"
             style="fill:#203e4b;fill-opacity:1;fill-rule:nonzero;stroke:none"
             id="path418" /></g><g
           id="g420"
           transform="translate(486.5586,47.541)"><path
             d="m 0,0 0,42.349 c 0,8.696 -2.017,11.09 -7.311,11.09 -4.033,0 -9.831,-3.024 -13.99,-7.183 l 0,-46.256 -13.612,0 0,46.886 c 0,6.68 -0.63,10.587 -2.395,15.125 l 12.604,3.529 c 1.513,-2.899 2.268,-5.672 2.268,-9.075 6.807,5.798 12.731,8.823 19.537,8.823 9.831,0 16.636,-5.925 16.636,-17.645 L 13.737,0 0,0 z"
             style="fill:#203e4b;fill-opacity:1;fill-rule:nonzero;stroke:none"
             id="path422" /></g><g
           id="g424"
           transform="translate(537.4795,45.9023)"><path
             d="m 0,0 c -17.394,0 -27.099,12.226 -27.099,32.77 0,23.191 13.865,34.282 28.107,34.282 6.932,0 11.973,-1.638 17.645,-6.932 l -6.931,-9.2 c -3.782,3.402 -7.059,4.915 -10.714,4.915 -4.411,0 -8.067,-2.269 -10.083,-6.429 -1.891,-3.906 -2.647,-9.83 -2.647,-17.77 0,-8.697 1.387,-14.242 4.285,-17.394 2.017,-2.268 5.042,-3.654 8.445,-3.654 4.412,0 8.697,2.142 12.856,6.301 L 20.418,8.445 C 14.62,2.646 8.57,0 0,0"
             style="fill:#203e4b;fill-opacity:1;fill-rule:nonzero;stroke:none"
             id="path426" /></g><g
           id="g428"
           transform="translate(587.2666,102.3672)"><path
             d="m 0,0 c -7.814,0 -12.1,-6.176 -12.1,-16.511 l 23.57,0 C 11.47,-6.176 6.933,0 0,0 m -12.226,-26.72 0,-1.009 c 0,-8.822 3.278,-18.148 15.755,-18.148 5.924,0 11.091,2.143 15.881,6.301 l 5.419,-8.444 c -6.68,-5.671 -14.368,-8.445 -22.938,-8.445 -18.024,0 -29.368,12.983 -29.368,33.401 0,11.216 2.396,18.653 7.941,24.955 5.168,5.923 11.47,8.57 19.536,8.57 6.302,0 12.1,-1.638 17.52,-6.554 5.545,-5.042 8.318,-12.855 8.318,-27.727 l 0,-2.9 -38.064,0 z"
             style="fill:#203e4b;fill-opacity:1;fill-rule:nonzero;stroke:none"
             id="path430" /></g><g
           id="g432"
           transform="translate(687.3418,47.541)"><path
             d="m 0,0 -44.617,0 0,87.218 14.747,0 0,-75.244 32.266,0 L 0,0 z"
             style="fill:#203e4b;fill-opacity:1;fill-rule:nonzero;stroke:none"
             id="path434" /></g><g
           id="g436"
           transform="translate(723.3906,77.6641)"><path
             d="m 0,0 c -13.864,0 -18.023,-4.033 -18.023,-12.1 0,-6.049 3.276,-9.831 8.822,-9.831 4.411,0 8.696,2.648 11.47,6.681 L 2.521,-0.126 C 2.269,-0.126 0.882,0 0,0 m 14.368,-32.77 c -3.907,1.512 -7.184,4.538 -8.697,8.571 -5.167,-5.798 -10.713,-7.815 -17.519,-7.815 -14.621,0 -21.174,8.067 -21.174,19.159 0,14.746 11.091,22.181 31.509,22.181 l 4.285,0 0,3.403 c 0,7.311 -1.26,11.218 -8.823,11.218 -8.192,0 -17.014,-5.798 -19.031,-7.31 l -6.176,9.957 c 9.579,6.05 17.52,8.697 27.098,8.697 9.957,0 16.638,-3.656 19.41,-10.588 1.135,-2.772 1.135,-6.176 1.009,-15.629 L 16.006,-9.201 c -0.126,-8.57 0.631,-11.343 5.546,-14.746 l -7.184,-8.823 z"
             style="fill:#203e4b;fill-opacity:1;fill-rule:nonzero;stroke:none"
             id="path438" /></g><g
           id="g440"
           transform="translate(778.5967,101.1074)"><path
             d="m 0,0 c -5.798,0 -9.579,-3.277 -12.1,-6.428 l 0,-31.132 c 2.774,-2.899 6.807,-5.545 11.848,-5.545 8.696,0 12.478,6.302 12.478,22.308 C 12.226,-9.327 9.957,0 0,0 m 2.395,-54.953 c -6.302,0 -11.595,2.521 -15.502,7.31 -0.631,-3.403 -0.883,-4.411 -1.765,-5.923 l -12.731,0 c 1.135,2.898 1.639,5.671 1.639,14.242 l 0,60.12 c 0,7.31 -0.504,11.848 -1.639,15.376 l 14.37,3.151 c 0.755,-4.537 1.007,-7.688 1.007,-12.729 l 0,-14.873 c 0,-3.655 -0.252,-5.672 -0.378,-6.049 L -12.1,5.545 c 4.412,4.286 9.076,6.176 15.125,6.176 15.25,0 24.829,-12.478 24.829,-32.391 0,-20.419 -10.586,-34.283 -25.459,-34.283"
             style="fill:#203e4b;fill-opacity:1;fill-rule:nonzero;stroke:none"
             id="path442" /></g></g></g><text
       transform="matrix(1,0,0,-1,246.5693,153.3701)"
       id="text444"><tspan
         style="fill:#203e4b;fill-opacity:1;fill-rule:nonzero;stroke:none;font-family:Meta;font-variant:normal;font-weight:bold;font-stretch:normal;font-size:42.5867;writing-mode:lr;-inkscape-font-specification:Meta-Bold"
         x="0 33.4305595 55.4904701 73.7175777 84.3642527 95.820075 107.2758973"
         y="0"
         sodipodi:role="line"
         id="tspan446">mozilla</tspan></text>
</g></svg>